
<svg xmlns="http://www.w3.org/2000/svg" version="1.1" xmlns:xlink="http://www.w3.org/1999/xlink" preserveAspectRatio="none" x="0px" y="0px" width="300px" height="250px" viewBox="0 0 300 250">
<defs>
<g id="Layer4_0_FILL">
<path fill="#00C500" stroke="none" d="
M 29.05 55.75
Q 27.5 61.9 27.15 67.85 39.15 67 51.9 67.75 58.05 67.95 61.3 70 63.45 71.35 64.4 73.75 64.9 75.05 64.9 76.25
L 67.25 75.85
Q 67.7 75.85 68.1 75.6 68.6 75.2 68.8 74.6 68.85 74.4 68.9 74.15 69.45 70.2 67.45 66.45 65.3 62.4 61.4 60.6 59.95 59.95 57.9 59.55 57.4 59.45 54.3 59 39.8 57 29.05 55.75 Z"/>

<path fill="#009200" stroke="none" d="
M 261.6 66.5
Q 258.5 66.95 258 67.05 255.95 67.45 254.5 68.1 250.6 69.9 248.45 73.95 246.65 77.4 246.95 81 246.9515625 81.0515625 247 81.1
L 247 81.45
Q 247.00234375 81.5546875 247.05 81.65
L 247.25 82.1
Q 247.6 82.6 248.5 83.5 248.75 83.75 249 83.75
L 249.6 83.75
Q 249.85 83.6 250.25 83.6 250.75 83.4 250.75 83.25
L 251.05 83.25
Q 251.1 82.3 251.5 81.25 252.45 78.85 254.6 77.5 257.85 75.45 264 75.25 276.75 74.5 288.75 75.35 288.4 69.4 286.85 63.25 276.1 64.5 261.6 66.5 Z"/>
</g>

<g id="Layer2_0_FILL">
<path fill="#000000" stroke="none" d="
M 257 238.65
Q 257 233.25 257.6 228.5 259.25 212.45 259.85 196.25 257.4 198.6 255.7 200.3 251.6 204.3 243.6 207.5 235.55 210.7 229.35 211.65 227.5 211.9 225.8 212.2 225.15 223.9 227.55 246.15 234.7 247.9 243.2 247.6 251.7 247.25 254.35 245.65 257 244.05 257 238.65
M 50.3 197.1
Q 41.95 193.55 35.9 188.65
L 37 221.35
Q 37.4 228.75 37.6 230.9 38 236.25 38.75 240.35 39.25 243.6 40.75 245 42.35 246.6 46.35 246.6
L 67.25 247.75
Q 69.6 238.75 71 229.55 72.95 216.85 73.1 203.7
L 68.75 202.8
Q 58 200.35 50.3 197.1
M 78.9 129.85
Q 78.3 130.45 77.25 132 74.4 136.55 73.5 138.75 71.85 142.85 72.55 147.3 72.85 147.3 73.05 147.3 77.2 147.3 80.35 146.85 81.15 146.8 86.3 145.85 87.8 141.05 85.5 133.6 84.6 131.2 84.1 130.5 82.75 128.7 81.1 128.85 79.95 128.85 78.9 129.85
M 220.4 139.3
Q 219.05 142.7 219.4 146.45 225.75 148.3 231.9 150.1 233 150.3 232.95 143.95 232.85 137.65 231.4 134.65 229.9 131.65 228.05 131.4 226.15 131.1 224.1 133.35 221.7 136.05 220.4 139.3 Z"/>

<path fill="#0099FF" stroke="none" d="
M 247.35 82.5
Q 247.55 82.55 247.7 82.65 242.6 74 219.6 33.1 217.55 29.45 216.45 27.8 214.55 24.95 212.5 23.1 207.65 18.7 199.5 17.35 194.25 16.5 184.6 16.75 134 18.25 123.5 18.5 117.65 18.75 114.85 19.25 110.1 20.05 106.85 22.1 104.85 23.45 102.8 25.65 101.65 26.9 99.35 29.85
L 67.8 76.75
Q 146.7 62.9 238 79.85 242.95 80.7 247.35 82.5 Z"/>

<path fill="#009900" stroke="none" d="
M 247.7 82.65
Q 247.55 82.55 247.35 82.5 242.95 80.7 238 79.85 146.7 62.9 67.8 76.75 69.55 76.9 71.25 77.25 69.55 76.9 67.8 76.75 64.25 77.1 60.55 78.35 57.5 79.45 49.45 84.65 41.35 89.85 36.5 93.8 31.65 97.75 27.75 107.4 24.6 115.1 22.25 125.85 14.55 161.05 27.75 180 31.1 184.75 35.9 188.65 41.95 193.55 50.3 197.1 58 200.35 68.75 202.8
L 73.1 203.7
Q 75.85 204.25 113.45 214.05 151.05 223.85 213.45 214.2 218.7 213.3 225.8 212.2 227.5 211.9 229.35 211.65 235.55 210.7 243.6 207.5 251.6 204.3 255.7 200.3 257.4 198.6 259.85 196.25 259.85 195.9 259.85 195.6 259.85 195.9 259.85 196.25 263.15 193 267.8 188.6 275.75 180.95 278.5 167.7 281.2 154.4 281.35 135.7 281.5 117 276.7 109.3 271.85 101.6 264.85 95.5 257.6 89.1 253.95 86.2 251.55 84.3 247.7 82.65
M 205.65 101.4
Q 205.35 102.9 205.1 104.35 229.3 110.35 251.75 121.85 253.2 122.7 253.55 123 254.5 123.7 255 124.5 255.7 125.75 255.5 128.1 255.5 135.5 255.35 139.25 255.35 144.9 255 148.05 254.45 152.85 252.75 156.35 248 154.9 243.1 153.45 237.6 151.75 231.9 150.1 225.75 148.3 219.4 146.45 215.25 145.2 211 144 206.85 142.8 202.6 141.6 201.35 124.15 205.1 104.35 204.55 104.25 200.4 103.4 204.55 104.25 205.1 104.35 205.35 102.9 205.65 101.4
M 183 165
Q 196.65 169.45 201.1 178.1 178.15 174.85 162.4 173.5 146.65 172.15 133.15 174.2 119.65 176.25 114.85 177.05 107.55 178.3 102.6 181.5 103.95 180.15 105.55 178.55 108.1 175.95 111.35 172.6 123.8 164.9 143 161.85 163.75 158.5 183 165
M 52.1 116.85
Q 51.9 119 51.75 121.2 64.6 118.75 68.9 117.8 79.45 115.55 87.5 113 90.45 112.05 96.35 110.1 101.45 108.6 105.35 108.1 106.1 126.4 103.75 144 100.2 143.55 95.15 144.25 93.7 144.45 92.1 144.75 88.7 145.4 86.3 145.85 81.15 146.8 80.35 146.85 77.2 147.3 73.05 147.3 72.85 147.3 72.55 147.3 70.65 147.25 65.75 147.1 64.25 147.05 62.85 147 55.85 146.7 52.1 146.5 50.5 146.5 50 145.85 49.4 145.15 49.6 143.6 50.8 131.9 51.75 121.2 50.9 121.35 45.4 122.25 50.9 121.35 51.75 121.2 51.9 119 52.1 116.85 Z"/>

<path fill="#FFFF00" stroke="none" d="
M 80.4 119.25
Q 78.55 119.35 76.75 120.25 74.1 121.75 71.1 125.35 65.2 132.15 62.85 137.85 60.7 143.5 62.85 147 64.25 147.05 65.75 147.1 70.65 147.25 72.55 147.3 71.85 142.85 73.5 138.75 74.4 136.55 77.25 132 78.3 130.45 78.9 129.85 79.95 128.85 81.1 128.85 82.75 128.7 84.1 130.5 84.6 131.2 85.5 133.6 87.8 141.05 86.3 145.85 88.7 145.4 92.1 144.75 93.7 144.45 95.15 144.25 96.1 135.15 92.75 126.75 91.95 124.95 91.1 124.35 90.75 124.15 90.1 124 89.35 123.85 89.1 123.75 88 123.35 86.5 121.95 84.8 120.45 84 120 82.45 119.1 80.4 119.25
M 214.85 131.6
Q 209.55 137.35 211 144 215.25 145.2 219.4 146.45 219.05 142.7 220.4 139.3 221.7 136.05 224.1 133.35 226.15 131.1 228.05 131.4 229.9 131.65 231.4 134.65 232.85 137.65 232.95 143.95 233 150.3 231.9 150.1 237.6 151.75 243.1 153.45 243.5 152.6 243.45 149.95 243.35 147.25 243.05 141.95 242.75 136.65 240.45 131.6 238.15 126.55 234.9 124.15 231.6 121.75 227.3 121.3 223 120.85 221.6 123.35 220.2 125.85 214.85 131.6 Z"/>
</g>

<g id="Layer1_0_FILL">
<path fill="#262626" stroke="none" d="
M 254.25 204.1
Q 259.05 200.7 259.25 200.3 259.45 199.9 259.3 199.05 259.15 198.2 259.35 197.4 258.55 198.15 257.1 199.85 256.35 200.6 254.25 202 248.45 205.5 242.75 207.85 240.95 208.8 236.95 209.8
L 241.1 212
Q 249.45 207.45 254.25 204.1
M 257.55 238.35
Q 257.7 236.8 257.55 235.8 252.7 238.5 242.75 243.1 241.75 243.6 241.1 243.6 240.65 243.6 239.1 243 231.05 238.25 225.85 234.5 226.6 239.6 226.7 242.1 226.7 244.6 226.9 245.1 227.1 245.6 227.1 246.15 227.05 246.7 230.2 247.4 233.3 248.1 238.5 248.25 243.65 248.35 248.9 247.6 254.15 246.8 255.5 245.1 257 243.8 257.2 241.85 257.4 239.85 257.55 238.35
M 258.35 224.35
Q 259.6 218.1 259.6 210.5 251.1 217.35 241.55 221.4 241.45 221.35 241.35 221.3 230.85 216.15 225.5 213.6
L 225.8 224.45
Q 232.55 229.75 241.6 233.5 250.15 229.55 258.35 224.35
M 53.7 246.05
Q 44.65 242.15 41.65 238.05 38.65 233.9 38 233.8 37.35 233.65 37.65 235.45 37.95 237.3 38.6 240.25 39.2 243.2 40.4 245.05 41.55 246.85 47.9 247.25 54.25 247.55 57.15 247.7 60.05 247.85 61.7 247.9 64.85 248 67.25 247.75 68.55 244.3 69 240.35 60.2 244.1 53.7 246.05
M 68.4 203.1
Q 68.5 202.95 68.65 202.9 68.55 202.9 68.4 202.9
L 68.4 203.1
M 72.05 221.8
L 73.35 207.75
Q 69.4 213.8 55.05 222.3 45 211.05 41.15 204.85 37.25 198.6 36.9 198.1 36.6 197.7 36.25 197.35 36.8 204.15 36.55 208.95 36.25 213.7 37.25 216.35 38.2 219 42.85 224.25 47.5 229.5 54.75 233.95 60.45 231.6 64.9 228.9 69.3 226.15 70.45 225.6 71.6 225.05 71.7 225.1 71.75 225.15 72.05 221.8
M 50.2 197.35
Q 47.9 196.3 46.6 195.7 45.35 195.1 44.6 194.25 47.25 197.5 51.85 203.2 56.5 208.9 57.05 209.05 57.6 209.2 60.25 207.65 62.9 206.1 68 202.6 64.6 202.05 56.65 200.2
L 50.2 197.35 Z"/>

<path fill="#FFFFFF" stroke="none" d="
M 72.55 132.75
Q 72.55 134.35 73.7 135.5 74.85 136.65 76.45 136.65 78.05 136.65 79.2 135.5 80.35 134.35 80.35 132.75 80.35 131.15 79.2 130 78.05 128.85 76.45 128.85 74.85 128.85 73.7 130 72.55 131.15 72.55 132.75
M 222.4 131.4
Q 220.8 131.4 219.65 132.55 218.5 133.7 218.5 135.3 218.5 136.9 219.65 138.05 220.8 139.2 222.4 139.2 224 139.2 225.15 138.05 226.3 136.9 226.3 135.3 226.3 133.7 225.15 132.55 224 131.4 222.4 131.4 Z"/>

<path fill="#5FBFFF" stroke="none" d="
M 179.4 26.85
Q 183.6 17.15 166.95 20.75 150.25 24.35 142.4 22.05 134.55 19.7 132.5 20.05 130.4 20.35 128.85 21.4 127.25 22.4 125.65 23.9 124 25.35 121.75 28.35 116.1 35.6 110.85 43.85 104.6 53.6 103.7 54.9 99.35 60.95 86.15 69 103.65 67.45 109.7 67.05 115.7 66.6 118.6 65.85 121.5 65.05 122.85 64.1 124.15 63.1 126.1 61.65 128 60.2 132.95 54.85 137.85 49.45 156.55 43 175.2 36.5 179.4 26.85 Z"/>
</g>

<g id="Layer0_0_FILL">
<path fill="#00A600" stroke="none" d="
M 89.3 73.95
Q 87.6 74.15 86.15 74.4 81.8 75 79.2 75.45 72.1 76.65 65.25 77.75 58.4 78.75 44.95 87.75 31.5 96.7 28.4 106.55 25.2 116.4 23.5 122.65 21.8 128.9 21.05 133.4 19.05 145.65 20.5 159.2 22.95 144.75 34.2 137.85 45.4 130.9 50.65 128.2 51.45 124.7 51.1 121.6
L 45.15 122.8
Q 45.25 121.9 45.7 121.8 46.15 121.7 47.45 121.5 48.7 121.35 50.4 121.25 52.05 121.1 51.5 119
L 51.5 117.5
Q 51.65 116.25 52.35 116.6
L 52.35 120.65
Q 61.15 119.45 68.95 117.75 82.5 114.8 98.55 108.9 99.15 108.65 99.8 108.4 100.2 108.15 100.75 107.85 102.8 106.75 103.95 106.15
L 104 106.15
Q 111.75 101.65 119.4 96.65 121.35 95.35 123.35 94 138.9 83.45 153.7 70.65 131.1 70.65 106.9 71.8 96.3 73.05 89.3 73.95 Z"/>

<path fill="#009200" stroke="none" d="
M 280.7 139.75
Q 276.9 141.1 274.55 143.75 273.2 145.25 270.6 148.85 252.95 172.15 219.6 187 206.45 192.75 194.9 198.8 183.3 204.85 173.4 206.75 163.45 208.55 157.55 211.4 151.65 214.25 149.35 216.6 148.2 217.8 148.05 217.3 147.9 217.65 147.75 218.1 161.15 219.25 174.3 218.3 187.4 217.3 204.2 215.15 221 213 230.25 211.15 239.5 209.3 245.6 206.25 251.65 203.2 253.25 201.8 254.85 200.35 257.15 198.1 259.4 195.8 265.45 190.35 271.45 184.9 274.65 178.05 277.8 171.2 278.9 162.55 280 153.9 280.7 139.75 Z"/>
</g>

<path id="Layer4_0_1_STROKES" stroke="#000000" stroke-width="1" stroke-linejoin="round" stroke-linecap="round" fill="none" d="
M 251.05 83.25
Q 250.95 84.65 251.6 85.85
M 246.6 79.85
Q 246.4 80.15 246.75 80.35 246.75 80.55 246.95 81 246.9515625 81.0515625 247 81.1
L 247 81.45
Q 247.00234375 81.5546875 247.05 81.65
L 247.25 82.1
Q 247.6 82.6 248.5 83.5 248.75 83.75 249 83.75
L 249.6 83.75
Q 249.85 83.6 250.25 83.6 250.75 83.4 250.75 83.25
L 251.05 83.25
M 247 81.45
L 247 81.6 247.05 81.65
M 247 81.45
Q 246.950390625 81.251171875 246.95 81
M 64.9 76.25
L 67.25 75.85
Q 67.7 75.85 68.1 75.6 68.6 75.2 68.8 74.6 68.85 74.4 68.9 74.15
M 64.9 76.25
Q 64.85 77.35 64.3 78.35"/>

<path id="Layer4_0_2_STROKES" stroke="#000000" stroke-width="2" stroke-linejoin="round" stroke-linecap="round" fill="none" d="
M 246.95 81
Q 246.65 77.4 248.45 73.95 250.6 69.9 254.5 68.1 255.95 67.45 258 67.05 258.5 66.95 261.6 66.5 276.1 64.5 286.85 63.25 288.4 69.4 288.75 75.35 276.75 74.5 264 75.25 257.85 75.45 254.6 77.5 252.45 78.85 251.5 81.25 251.1 82.3 251.05 83.25
M 68.9 74.15
Q 69.45 70.2 67.45 66.45 65.3 62.4 61.4 60.6 59.95 59.95 57.9 59.55 57.4 59.45 54.3 59 39.8 57 29.05 55.75 27.5 61.9 27.15 67.85 39.15 67 51.9 67.75 58.05 67.95 61.3 70 63.45 71.35 64.4 73.75 64.9 75.05 64.9 76.25"/>

<path id="Layer2_0_1_STROKES" stroke="#000000" stroke-width="1" stroke-linejoin="round" stroke-linecap="round" fill="none" d="
M 67.8 76.75
Q 64.25 76.45 60.55 78.35
M 219.4 146.45
Q 219.05 142.7 220.4 139.3 221.7 136.05 224.1 133.35 226.15 131.1 228.05 131.4 229.9 131.65 231.4 134.65 232.85 137.65 232.95 143.95 233 150.3 231.9 150.1
M 259.85 195.6
Q 259.85 195.9 259.85 196.25 259.25 212.45 257.6 228.5 257 233.25 257 238.65 257 244.05 254.35 245.65 251.7 247.25 243.2 247.6 234.7 247.9 227.55 246.15 225.15 223.9 225.8 212.2
M 73.1 203.7
Q 72.95 216.85 71 229.55 69.6 238.75 67.25 247.75
L 46.35 246.6
Q 42.35 246.6 40.75 245 39.25 243.6 38.75 240.35 38 236.25 37.6 230.9 37.4 228.75 37 221.35
L 35.9 188.65
M 72.55 147.3
Q 71.85 142.85 73.5 138.75 74.4 136.55 77.25 132 78.3 130.45 78.9 129.85 79.95 128.85 81.1 128.85 82.75 128.7 84.1 130.5 84.6 131.2 85.5 133.6 87.8 141.05 86.3 145.85"/>

<path id="Layer2_0_2_STROKES" stroke="#000000" stroke-width="2" stroke-linejoin="round" stroke-linecap="round" fill="none" d="
M 247.7 82.65
Q 247.55 82.55 247.35 82.5 242.95 80.7 238 79.85 146.7 62.9 67.8 76.75 69.55 76.9 71.25 77.25
M 259.85 196.25
Q 263.15 193 267.8 188.6 275.75 180.95 278.5 167.7 281.2 154.4 281.35 135.7 281.5 117 276.7 109.3 271.85 101.6 264.85 95.5 257.6 89.1 253.95 86.2 251.55 84.3 247.7 82.65 242.6 74 219.6 33.1 217.55 29.45 216.45 27.8 214.55 24.95 212.5 23.1 207.65 18.7 199.5 17.35 194.25 16.5 184.6 16.75 134 18.25 123.5 18.5 117.65 18.75 114.85 19.25 110.1 20.05 106.85 22.1 104.85 23.45 102.8 25.65 101.65 26.9 99.35 29.85
L 67.8 76.75
Q 64.25 77.1 60.55 78.35
M 205.65 101.4
Q 205.35 102.9 205.1 104.35 229.3 110.35 251.75 121.85 253.2 122.7 253.55 123 254.5 123.7 255 124.5 255.7 125.75 255.5 128.1 255.5 135.5 255.35 139.25 255.35 144.9 255 148.05 254.45 152.85 252.75 156.35 248 154.9 243.1 153.45 237.6 151.75 231.9 150.1 225.75 148.3 219.4 146.45 215.25 145.2 211 144 206.85 142.8 202.6 141.6 201.35 124.15 205.1 104.35 204.55 104.25 200.4 103.4
M 211 144
Q 209.55 137.35 214.85 131.6 220.2 125.85 221.6 123.35 223 120.85 227.3 121.3 231.6 121.75 234.9 124.15 238.15 126.55 240.45 131.6 242.75 136.65 243.05 141.95 243.35 147.25 243.45 149.95 243.5 152.6 243.1 153.45
M 143 161.85
Q 163.75 158.5 183 165 196.65 169.45 201.1 178.1 178.15 174.85 162.4 173.5 146.65 172.15 133.15 174.2 119.65 176.25 114.85 177.05 107.55 178.3 102.6 181.5 103.95 180.15 105.55 178.55 108.1 175.95 111.35 172.6 123.8 164.9 143 161.85 Z
M 225.8 212.2
Q 218.7 213.3 213.45 214.2 151.05 223.85 113.45 214.05 75.85 204.25 73.1 203.7
M 35.9 188.65
Q 31.1 184.75 27.75 180 14.55 161.05 22.25 125.85 24.6 115.1 27.75 107.4 31.65 97.75 36.5 93.8 41.35 89.85 49.45 84.65 57.5 79.45 60.55 78.35
M 62.85 147
Q 60.7 143.5 62.85 137.85 65.2 132.15 71.1 125.35 74.1 121.75 76.75 120.25 78.55 119.35 80.4 119.25 82.45 119.1 84 120 84.8 120.45 86.5 121.95 88 123.35 89.1 123.75 89.35 123.85 90.1 124 90.75 124.15 91.1 124.35 91.95 124.95 92.75 126.75 96.1 135.15 95.15 144.25 100.2 143.55 103.75 144 106.1 126.4 105.35 108.1 101.45 108.6 96.35 110.1 90.45 112.05 87.5 113 79.45 115.55 68.9 117.8 64.6 118.75 51.75 121.2 50.8 131.9 49.6 143.6 49.4 145.15 50 145.85 50.5 146.5 52.1 146.5 55.85 146.7 62.85 147 64.25 147.05 65.75 147.1 70.65 147.25 72.55 147.3
M 86.3 145.85
Q 88.7 145.4 92.1 144.75 93.7 144.45 95.15 144.25
M 52.1 116.85
Q 51.9 119 51.75 121.2 50.9 121.35 45.4 122.25
M 72.55 147.3
Q 72.85 147.3 73.05 147.3 77.2 147.3 80.35 146.85 81.15 146.8 86.3 145.85
M 35.9 188.65
Q 41.95 193.55 50.3 197.1 58 200.35 68.75 202.8
L 73.1 203.7
M 225.8 212.2
Q 227.5 211.9 229.35 211.65 235.55 210.7 243.6 207.5 251.6 204.3 255.7 200.3 257.4 198.6 259.85 196.25"/>

<path id="Layer0_0_1_STROKES" stroke="#000000" stroke-width="1" stroke-linejoin="round" stroke-linecap="round" fill="none" d="
M 50.65 128.2
Q 51.45 124.7 51.1 121.6
L 45.15 122.8
Q 45.25 121.9 45.7 121.8 46.15 121.7 47.45 121.5 48.7 121.35 50.4 121.25 52.05 121.1 51.5 119
L 51.5 117.5
Q 51.65 116.25 52.35 116.6
L 52.35 120.65
Q 61.15 119.45 68.95 117.75 82.5 114.8 98.55 108.9 99.15 108.65 99.8 108.4
M 153.7 70.65
Q 131.1 70.65 106.9 71.8
M 50.65 128.2
Q 50.8 128.1 51 128
M 102.75 108.85
Q 103.75 108.55 104.75 108.25"/>
</defs>

<g transform="matrix( 1, 0, 0, 1, 0,0) ">
<use xlink:href="#Layer4_0_FILL"/>

<use xlink:href="#Layer4_0_1_STROKES"/>

<use xlink:href="#Layer4_0_2_STROKES"/>
</g>

<g transform="matrix( 1, 0, 0, 1, 0,0) ">
<use xlink:href="#Layer2_0_FILL"/>

<use xlink:href="#Layer2_0_1_STROKES"/>

<use xlink:href="#Layer2_0_2_STROKES"/>
</g>

<g transform="matrix( 1, 0, 0, 1, 0,0) ">
<use xlink:href="#Layer1_0_FILL"/>
</g>

<g transform="matrix( 1, 0, 0, 1, 0,0) ">
<use xlink:href="#Layer0_0_FILL"/>

<use xlink:href="#Layer0_0_1_STROKES"/>
</g>
</svg>
